<svg id="e4apu8lvdlhw1" xmlns="http://www.w3.org/2000/svg" xmlns:xlink="http://www.w3.org/1999/xlink" viewBox="0 0 800 800" shape-rendering="geometricPrecision" text-rendering="geometricPrecision"><style><![CDATA[#e4apu8lvdlhw3_to {animation: e4apu8lvdlhw3_to__to 3000ms linear 1 normal forwards}@keyframes e4apu8lvdlhw3_to__to { 0% {transform: translate(196px,329.786514px)} 100% {transform: translate(601.080000px,323.786514px)} }#e4apu8lvdlhw3 {animation: e4apu8lvdlhw3_c_o 3000ms linear 1 normal forwards}@keyframes e4apu8lvdlhw3_c_o { 0% {opacity: 0} 100% {opacity: 1} }#e4apu8lvdlhw7 {animation: e4apu8lvdlhw7_c_o 3000ms linear 1 normal forwards}@keyframes e4apu8lvdlhw7_c_o { 0% {opacity: 0} 100% {opacity: 1} }#e4apu8lvdlhw10 {animation: e4apu8lvdlhw10_c_o 3000ms linear 1 normal forwards}@keyframes e4apu8lvdlhw10_c_o { 0% {opacity: 0} 100% {opacity: 1} }]]></style><defs><linearGradient id="e4apu8lvdlhw5-fill" x1="534.358580" y1="47.990131" x2="-1081.578900" y2="718.926760" spreadMethod="pad" gradientUnits="userSpaceOnUse"><stop id="e4apu8lvdlhw5-fill-0" offset="0%" stop-color="rgb(255,85,85)"/><stop id="e4apu8lvdlhw5-fill-1" offset="100%" stop-color="rgba(255,85,85,0)"/></linearGradient><linearGradient id="e4apu8lvdlhw14-fill" x1="481" y1="120" x2="-622.863710" y2="809.162900" spreadMethod="pad" gradientUnits="userSpaceOnUse"><stop id="e4apu8lvdlhw14-fill-0" offset="0%" stop-color="rgb(255,85,85)"/><stop id="e4apu8lvdlhw14-fill-1" offset="100%" stop-color="rgba(255,85,85,0)"/></linearGradient><linearGradient id="e4apu8lvdlhw15-fill" x1="481" y1="120" x2="-622.863710" y2="809.162900" spreadMethod="pad" gradientUnits="userSpaceOnUse"><stop id="e4apu8lvdlhw15-fill-0" offset="0%" stop-color="rgb(255,85,85)"/><stop id="e4apu8lvdlhw15-fill-1" offset="100%" stop-color="rgba(255,85,85,0)"/></linearGradient></defs><g id="e4apu8lvdlhw2"><g id="e4apu8lvdlhw3_to" transform="translate(196,329.786514)"><g id="e4apu8lvdlhw3" transform="translate(-601.080566,-323.786514)" opacity="0"><g id="e4apu8lvdlhw4" transform="matrix(0.00154700000000 -0.75822100000000 0.77175600000000 0.00152000000000 394.19099999999997 463.32200000000000)"><path id="e4apu8lvdlhw5" d="M331,120L331,287C331,328.400000,297.400000,362,256,362C214.600000,362,181,328.400000,181,287L181,120L31,120L31,287C31,411.200000,131.800000,512,256,512C380.200000,512,481,411.200000,481,287L481,120C481.329690,-46.740285,406.754150,34.677498,331,120Z" fill="url(#e4apu8lvdlhw5-fill)" stroke="none" stroke-width="1"/></g><rect id="e4apu8lvdlhw6" width="119.925000" height="108.921000" rx="0" ry="0" transform="matrix(1 0 0 1 486.84899999999999 440)" fill="rgb(249,249,249)" fill-opacity="0.939271" stroke="none" stroke-width="28.766200" stroke-opacity="0" stroke-dashoffset="103.558000" stroke-dasharray="57.532300,28.766200"/></g></g><g id="e4apu8lvdlhw7" opacity="0"><text id="e4apu8lvdlhw8" dx="0" dy="0" font-family="Krungthep" font-size="75.177200" transform="matrix(1.01355000000000 0 0 0.98663000000000 13.65125156249997 670.29175625000005)" fill="rgb(249,249,249)" stroke="none" stroke-width="1.127650"><![CDATA[Nat Pombubpa Lab]]></text><text id="e4apu8lvdlhw9" dx="0" dy="0" font-family="sans-serif" font-size="55" transform="matrix(1.05543000000000 0 0 0.94748100000000 17.18920942124998 738.04417060187495)" fill="rgb(249,249,249)" stroke="none" stroke-width="1.231910"><![CDATA[@ Chulalongkorn University]]></text></g><g id="e4apu8lvdlhw10" opacity="0"><rect id="e4apu8lvdlhw11" width="119.925000" height="108.921000" rx="0" ry="0" transform="matrix(1 0 0 1 16.49160000000000 442.03500000000003)" fill="rgb(249,249,249)" fill-opacity="0.939271" stroke="none" stroke-width="28.766200" stroke-opacity="0" stroke-dashoffset="103.558000" stroke-dasharray="57.532300,28.766200"/><rect id="e4apu8lvdlhw12" width="119.925000" height="108.921000" rx="0" ry="0" transform="matrix(1 0 0 1 256.53399999999999 442.30000000000001)" fill="rgb(249,249,249)" fill-opacity="0.939271" stroke="none" stroke-width="28.766200" stroke-opacity="0" stroke-dashoffset="103.558000" stroke-dasharray="57.532300,28.766200"/><g id="e4apu8lvdlhw13" transform="matrix(-0.80078300000000 -0.00177200000001 0.00160500000001 -0.88402500000000 401.28300000000002 548.70399999999995)"><path id="e4apu8lvdlhw14" d="M331,120L331,287C331,328.400000,297.400000,362,256,362C214.600000,362,181,328.400000,181,287L181,120L31,120L31,287C31,411.200000,131.800000,512,256,512C380.200000,512,481,411.200000,481,287L481,120Z" fill="url(#e4apu8lvdlhw14-fill)" stroke="none" stroke-width="1"/><path id="e4apu8lvdlhw15" d="M481,120L481,287C481,411.200000,380.200000,512,256,512L256,362C297.400000,362,331,328.400000,331,287L331,120Z" fill="url(#e4apu8lvdlhw15-fill)" stroke="none" stroke-width="1"/></g></g></g></svg>